<svg width="24" height="24" viewBox="0 0 24 24" fill="none" xmlns="http://www.w3.org/2000/svg">
<path d="M9.33333 0H1.33333C0.979711 0 0.640573 0.140476 0.390524 0.390524C0.140476 0.640573 0 0.979711 0 1.33333V9.33333C0 9.68696 0.140476 10.0261 0.390524 10.2761C0.640573 10.5262 0.979711 10.6667 1.33333 10.6667H9.33333C9.68696 10.6667 10.0261 10.5262 10.2761 10.2761C10.5262 10.0261 10.6667 9.68696 10.6667 9.33333V1.33333C10.6667 0.979711 10.5262 0.640573 10.2761 0.390524C10.0261 0.140476 9.68696 0 9.33333 0V0ZM22.6667 13.3333H14.6667C14.313 13.3333 13.9739 13.4738 13.7239 13.7239C13.4738 13.9739 13.3333 14.313 13.3333 14.6667V22.6667C13.3333 23.0203 13.4738 23.3594 13.7239 23.6095C13.9739 23.8595 14.313 24 14.6667 24H22.6667C23.0203 24 23.3594 23.8595 23.6095 23.6095C23.8595 23.3594 24 23.0203 24 22.6667V14.6667C24 14.313 23.8595 13.9739 23.6095 13.7239C23.3594 13.4738 23.0203 13.3333 22.6667 13.3333ZM18.6667 0C15.7253 0 13.3333 2.392 13.3333 5.33333C13.3333 8.27467 15.7253 10.6667 18.6667 10.6667C21.608 10.6667 24 8.27467 24 5.33333C24 2.392 21.608 0 18.6667 0ZM5.33333 13.3333C2.392 13.3333 0 15.7253 0 18.6667C0 21.608 2.392 24 5.33333 24C8.27467 24 10.6667 21.608 10.6667 18.6667C10.6667 15.7253 8.27467 13.3333 5.33333 13.3333Z" fill="#1568E4"/>
</svg>
