<svg width="50" height="50" viewBox="0 0 50 50" fill="none" xmlns="http://www.w3.org/2000/svg">
<path d="M33.95 21.324C33.9399 20.5666 33.7981 19.8168 33.531 19.108C33.2993 18.5102 32.9455 17.9672 32.4922 17.5138C32.0388 17.0605 31.4958 16.7067 30.898 16.475C30.1983 16.2124 29.4592 16.0703 28.712 16.055C27.75 16.012 27.445 16 25.003 16C22.561 16 22.248 16 21.293 16.055C20.5462 16.0705 19.8073 16.2125 19.108 16.475C18.5101 16.7065 17.967 17.0602 17.5136 17.5136C17.0602 17.967 16.7065 18.5101 16.475 19.108C16.2118 19.8071 16.0701 20.5461 16.056 21.293C16.013 22.256 16 22.561 16 25.003C16 27.445 16 27.757 16.056 28.713C16.071 29.461 16.212 30.199 16.475 30.9C16.7069 31.4978 17.0609 32.0406 17.5144 32.4938C17.968 32.947 18.5111 33.3006 19.109 33.532C19.8064 33.8052 20.5454 33.9574 21.294 33.982C22.257 34.025 22.562 34.038 25.004 34.038C27.446 34.038 27.759 34.038 28.714 33.982C29.4612 33.9673 30.2004 33.8256 30.9 33.563C31.4977 33.3311 32.0405 32.9772 32.4938 32.5238C32.9472 32.0705 33.3011 31.5277 33.533 30.93C33.796 30.23 33.937 29.492 33.952 28.743C33.995 27.781 34.008 27.476 34.008 25.033C34.006 22.591 34.006 22.281 33.95 21.324V21.324ZM24.997 29.621C22.443 29.621 20.374 27.552 20.374 24.998C20.374 22.444 22.443 20.375 24.997 20.375C26.2231 20.375 27.399 20.8621 28.266 21.729C29.1329 22.596 29.62 23.7719 29.62 24.998C29.62 26.2241 29.1329 27.4 28.266 28.267C27.399 29.1339 26.2231 29.621 24.997 29.621V29.621ZM29.804 21.282C29.6624 21.2821 29.5222 21.2543 29.3913 21.2002C29.2605 21.1461 29.1416 21.0667 29.0414 20.9666C28.9413 20.8664 28.8619 20.7475 28.8078 20.6167C28.7537 20.4858 28.7259 20.3456 28.726 20.204C28.726 20.0625 28.7539 19.9224 28.808 19.7917C28.8622 19.6609 28.9415 19.5421 29.0416 19.4421C29.1416 19.342 29.2604 19.2627 29.3912 19.2085C29.5219 19.1544 29.662 19.1265 29.8035 19.1265C29.945 19.1265 30.0851 19.1544 30.2158 19.2085C30.3466 19.2627 30.4654 19.342 30.5654 19.4421C30.6655 19.5421 30.7448 19.6609 30.799 19.7917C30.8531 19.9224 30.881 20.0625 30.881 20.204C30.881 20.8 30.399 21.282 29.804 21.282Z" fill="#1568E4"/>
<path d="M24.997 28.001C26.6555 28.001 28 26.6565 28 24.998C28 23.3395 26.6555 21.995 24.997 21.995C23.3385 21.995 21.994 23.3395 21.994 24.998C21.994 26.6565 23.3385 28.001 24.997 28.001Z" fill="#1568E4"/>
<rect x="0.5" y="0.5" width="49" height="49" rx="24.5" stroke="#1568E4"/>
</svg>
