<svg width="21" height="27" viewBox="0 0 21 27" fill="none" xmlns="http://www.w3.org/2000/svg">
<path d="M17.85 14.04C18.6854 14.04 19.4866 14.3814 20.0774 14.989C20.6681 15.5966 21 16.4207 21 17.28H10.5V19.44H20.916C20.8047 20.1744 20.5779 20.9045 20.244 21.6H10.5V23.76H18.7509C16.9533 25.6673 14.1351 27 10.5 27C3.906 27 0 22.6174 0 18.36V17.28C0 16.4207 0.331874 15.5966 0.922614 14.989C1.51335 14.3814 2.31457 14.04 3.15 14.04H17.85ZM16.1805 4.86C16.3078 5.57405 16.3078 6.30595 16.1805 7.02H10.5V9.18H15.3405C14.6615 10.2532 13.6634 11.072 12.4951 11.5144C11.3268 11.9567 10.0508 11.9988 8.85736 11.6346C7.66387 11.2703 6.61678 10.5191 5.87216 9.49289C5.12753 8.46671 4.72524 7.22049 4.72524 5.94C4.72524 4.65951 5.12753 3.4133 5.87216 2.38711C6.61678 1.36092 7.66387 0.609709 8.85736 0.245432C10.0508 -0.118844 11.3268 -0.0766782 12.4951 0.365646C13.6634 0.80797 14.6615 1.62677 15.3405 2.7H10.5V4.86H16.1805Z" fill="#1568E4"/>
</svg>
