<svg width="50" height="50" viewBox="0 0 50 50" fill="none" xmlns="http://www.w3.org/2000/svg">
<rect x="0.5" y="0.5" width="49" height="49" rx="24.5" stroke="#1568E4"/>
<path d="M25.501 15C23.8511 14.9999 22.2295 15.438 20.7961 16.2714C19.3626 17.1047 18.1666 18.3045 17.3259 19.7525C16.4852 21.2006 16.0286 22.847 16.0013 24.5297C15.974 26.2125 16.3767 27.8734 17.17 29.3491L16.3935 32.1444C16.3211 32.3991 16.317 32.669 16.3817 32.9258C16.4464 33.1827 16.5776 33.4171 16.7614 33.6047C16.9453 33.7922 17.1751 33.926 17.427 33.992C17.6788 34.058 17.9434 34.0538 18.1931 33.9799L20.9336 33.188C22.2036 33.898 23.6159 34.3024 25.0626 34.3703C26.5094 34.4383 27.9522 34.168 29.2808 33.5801C30.6094 32.9921 31.7887 32.1021 32.7284 30.9781C33.6681 29.8541 34.3435 28.5258 34.7029 27.0948C35.0622 25.6638 35.0961 24.1679 34.8019 22.7215C34.5076 21.2751 33.893 19.9164 33.0051 18.7494C32.1173 17.5824 30.9795 16.6378 29.6789 15.988C28.3783 15.3381 26.9493 15.0002 25.501 15V15ZM27.7025 30.6536H27.6934C25.5606 30.6511 23.5159 29.7852 22.0086 28.246C20.5013 26.7068 19.6547 24.6203 19.6547 22.4448C19.6571 21.5568 20.0046 20.706 20.6211 20.0789C21.2376 19.4519 22.0726 19.0997 22.9432 19.0997C23.1826 19.1003 23.4175 19.1652 23.6244 19.2878C23.8313 19.4105 24.0028 19.5867 24.1216 19.7986L25.1904 21.7087C25.3195 21.9374 25.3859 22.1974 25.3827 22.4613C25.3795 22.7252 25.3068 22.9834 25.1722 23.2088L24.5236 24.3176C24.8497 24.8832 25.3119 25.3547 25.8664 25.6873L26.9535 25.0257C27.1745 24.8884 27.4276 24.8143 27.6863 24.811C27.9451 24.8077 28.1999 24.8754 28.4242 25.0071L30.2968 26.0973C30.5046 26.2185 30.6773 26.3934 30.7975 26.6045C30.9178 26.8155 30.9814 27.0551 30.982 27.2992C30.982 28.1872 30.6367 29.039 30.022 29.6678C29.4072 30.2966 28.5731 30.6511 27.7025 30.6536V30.6536Z" fill="#1568E4"/>
<path d="M26.2774 27.1781C26.1758 27.2387 26.0614 27.2737 25.9439 27.2802C25.8263 27.2867 25.7089 27.2644 25.6015 27.2153C24.4528 26.696 23.5345 25.7594 23.0254 24.5878C22.9773 24.4782 22.9555 24.3584 22.9618 24.2385C22.9682 24.1186 23.0025 24.0019 23.062 23.8983L23.9206 22.4447L22.8884 20.5905C22.4142 20.6027 21.9635 20.8034 21.6324 21.1498C21.3013 21.4962 21.1161 21.9609 21.1162 22.4447C21.115 23.3265 21.2843 24.1999 21.6142 25.0149C21.9442 25.8299 22.4285 26.5705 23.0394 27.1945C23.6502 27.8184 24.3757 28.3134 25.1743 28.6511C25.9728 28.9889 26.8289 29.1627 27.6933 29.1627H27.7025C28.1768 29.1629 28.6324 28.9739 28.972 28.6362C29.3116 28.2985 29.5084 27.8387 29.5203 27.3551L27.7025 26.3022L26.2774 27.1781Z" fill="#1568E4"/>
</svg>
