<svg width="50" height="50" viewBox="0 0 50 50" fill="none" xmlns="http://www.w3.org/2000/svg">
<path d="M17.88 19H31.13C32.38 19 33.01 19.59 33.01 20.79V29.21C33.01 30.4 32.38 31 31.13 31H17.88C16.63 31 16 30.4 16 29.21V20.79C16 19.59 16.63 19 17.88 19ZM24.5 27.6L31.24 22.07C31.48 21.87 31.67 21.41 31.37 21C31.08 20.59 30.55 20.58 30.2 20.83L24.5 24.69L18.81 20.83C18.46 20.58 17.93 20.59 17.64 21C17.34 21.41 17.53 21.87 17.77 22.07L24.5 27.6Z" fill="#1568E4"/>
<rect x="0.5" y="0.5" width="49" height="49" rx="24.5" stroke="#1568E4"/>
</svg>
