<svg width="50" height="50" viewBox="0 0 50 50" fill="none" xmlns="http://www.w3.org/2000/svg">
<rect x="0.5" y="0.5" width="49" height="49" rx="24.5" stroke="#1568E4"/>
<path d="M24.0125 35.5057C21.8375 32.7399 17 26.0366 17 22.2714C17 17.7032 20.5817 14 25 14C29.4167 14 33 17.7032 33 22.2714C33 26.0366 28.125 32.7399 25.9875 35.5057C25.475 36.1648 24.525 36.1648 24.0125 35.5057V35.5057ZM25 25.0285C26.4708 25.0285 27.6667 23.7921 27.6667 22.2714C27.6667 20.7507 26.4708 19.5143 25 19.5143C23.5292 19.5143 22.3333 20.7507 22.3333 22.2714C22.3333 23.7921 23.5292 25.0285 25 25.0285Z" fill="#1568E4"/>
</svg>
